HIERARCHY
ROOT joint_Root
{
	OFFSET 0.0 0.0 0.0
	CHANNELS 6 Xposition Yposition Zposition Zrotation Xrotation Yrotation 
	JOINT Hips
	{
		OFFSET -0.726466 93.3139 -2.00062
		CHANNELS 6 Xposition Yposition Zposition Zrotation Xrotation Yrotation 
		JOINT Spine
		{
			OFFSET 15.7357 0.0 0.0
			CHANNELS 6 Xposition Yposition Zposition Zrotation Xrotation Yrotation 
			JOINT Chest
			{
				OFFSET 8.98455 -0.406207 0.0
				CHANNELS 6 Xposition Yposition Zposition Zrotation Xrotation Yrotation 
				JOINT Neck
				{
					OFFSET 16.3773 0.0 0.0
					CHANNELS 6 Xposition Yposition Zposition Zrotation Xrotation Yrotation 
					JOINT Head
					{
						OFFSET 6.45672 0.0 0.0
						CHANNELS 6 Xposition Yposition Zposition Zrotation Xrotation Yrotation 
						End Site
						{
							OFFSET 0.0 0.0 0.0
						}
					}
				}
				JOINT Shoulder_L
				{
					OFFSET 12.9942 -0.242716 4.98039
					CHANNELS 6 Xposition Yposition Zposition Zrotation Xrotation Yrotation 
					JOINT UpperArm_L
					{
						OFFSET 5.34809 0.0 0.0
						CHANNELS 6 Xposition Yposition Zposition Zrotation Xrotation Yrotation 
						JOINT LowerArm_L
						{
							OFFSET 24.3286 1.87007e-05 0.0
							CHANNELS 6 Xposition Yposition Zposition Zrotation Xrotation Yrotation 
							JOINT Hand_L
							{
								OFFSET 22.2916 0.0 0.0
								CHANNELS 6 Xposition Yposition Zposition Zrotation Xrotation Yrotation 
								End Site
								{
									OFFSET 0.0 0.0 0.0
								}
							}
						}
					}
				}
				JOINT Shoulder_R
				{
					OFFSET 12.9945 -0.242716 -4.98039
					CHANNELS 6 Xposition Yposition Zposition Zrotation Xrotation Yrotation 
					JOINT UpperArm_R
					{
						OFFSET -5.34813 0.0 0.0
						CHANNELS 6 Xposition Yposition Zposition Zrotation Xrotation Yrotation 
						JOINT LowerArm_R
						{
							OFFSET -24.3289 0.000322201 0.0
							CHANNELS 6 Xposition Yposition Zposition Zrotation Xrotation Yrotation 
							JOINT Hand_R
							{
								OFFSET -22.2915 -0.000108084 0.0
								CHANNELS 6 Xposition Yposition Zposition Zrotation Xrotation Yrotation 
								End Site
								{
									OFFSET 0.0 0.0 0.0
								}
							}
						}
					}
				}
			}
		}
		JOINT UpperLeg_L
		{
			OFFSET -2.19248 -6.46944 0.0
			CHANNELS 6 Xposition Yposition Zposition Zrotation Xrotation Yrotation 
			JOINT LowerLeg_L
			{
				OFFSET 39.0811 0.0 -1.23785e-05
				CHANNELS 6 Xposition Yposition Zposition Zrotation Xrotation Yrotation 
				JOINT Foot_L
				{
					OFFSET 40.9854 0.0 -1.26872e-05
					CHANNELS 6 Xposition Yposition Zposition Zrotation Xrotation Yrotation 
					JOINT Toes_L
					{
						OFFSET 11.7543 0.0 0.0
						CHANNELS 6 Xposition Yposition Zposition Zrotation Xrotation Yrotation 
						End Site
						{
							OFFSET 0.0 0.0 0.0
						}
					}
				}
			}
		}
		JOINT UpperLeg_R
		{
			OFFSET -2.19251 6.46944 0.0
			CHANNELS 6 Xposition Yposition Zposition Zrotation Xrotation Yrotation 
			JOINT LowerLeg_R
			{
				OFFSET -39.0811 -0.00228153 -0.0401928
				CHANNELS 6 Xposition Yposition Zposition Zrotation Xrotation Yrotation 
				JOINT Foot_R
				{
					OFFSET -40.9854 0.0 0.0
					CHANNELS 6 Xposition Yposition Zposition Zrotation Xrotation Yrotation 
					JOINT Toes_R
					{
						OFFSET -11.7543 0.0 0.0
						CHANNELS 6 Xposition Yposition Zposition Zrotation Xrotation Yrotation 
						End Site
						{
							OFFSET 0.0 0.0 0.0
						}
					}
				}
			}
		}
	}
}
MOTION
Frames:	6
Frame Time:	0.0333333
0.000000 0.000000 0.000000 0.000000 0.000000 -0.000000 2.695750 88.185600 -25.533200 82.640200 6.967880 -10.576400 15.735700 0.000005 -0.000001 63.896100 78.832600 -60.728000 8.984550 -0.406207 -0.000000 12.697100 -9.599180 7.418150 16.377300 -0.000001 -0.000001 5.505210 -0.198157 -1.718730 6.456720 -0.000001 -0.000000 -2.888610 7.192260 0.447732 12.994200 -0.242716 4.980390 -86.296500 -10.262600 -70.032500 5.348090 -0.000007 -0.000001 -45.931800 18.138400 -33.283100 24.328600 0.000019 0.000005 -5.500610 -0.556328 -84.242500 22.291600 -0.000001 0.000005 2.166700 5.666360 -16.848700 12.994500 -0.242716 -4.980390 90.390700 -0.694519 -60.646100 -5.348130 -0.000001 -0.000004 -55.605800 38.378700 11.987600 -24.328900 0.000322 -0.000009 -6.844060 -4.027800 -59.658100 -22.291500 -0.000108 -0.000004 1.230770 5.651750 -15.185000 -2.192480 -6.469440 -0.000000 -168.889000 -3.874120 -0.247437 39.081100 -0.000007 -0.000012 0.003205 -0.004826 33.578200 40.985400 -0.000006 -0.000013 0.699381 2.665490 -60.805200 11.754300 -0.000000 0.000003 -0.217461 -0.673359 -45.573300 -2.192510 6.469440 -0.000001 -168.047000 12.465200 126.443000 -39.081100 -0.002282 -0.040193 0.056375 0.002637 92.938200 -40.985400 0.000008 0.000006 3.850870 -7.990940 -61.471400 -11.754300 -0.000006 -0.000006 -0.018784 -0.160459 -23.126600
0.000000 0.000000 0.000000 0.000000 0.000000 -0.000000 2.120710 91.039300 -14.311300 83.438500 8.899360 -11.228100 15.735700 0.000005 -0.000001 57.913000 78.549200 -54.410900 8.984550 -0.406207 -0.000000 12.209400 -11.925200 8.302980 16.377300 -0.000001 -0.000001 7.152740 -0.351871 -2.316040 6.456720 -0.000001 -0.000000 -3.659670 8.104680 0.373088 12.994200 -0.242716 4.980390 -85.865100 -12.036100 -70.878900 5.348090 -0.000007 -0.000001 -45.246300 16.511900 -34.323100 24.328600 0.000019 0.000005 -4.807230 -0.458566 -84.563800 22.291600 -0.000001 0.000005 2.297230 5.662930 -16.408900 12.994500 -0.242716 -4.980390 91.590900 -2.718790 -59.652000 -5.348130 -0.000001 -0.000004 -58.958300 34.770300 17.121900 -24.328900 0.000322 -0.000009 -5.776050 -2.968500 -62.890000 -22.291500 -0.000108 -0.000004 1.093760 5.647030 -14.737600 -2.192480 -6.469440 -0.000000 -165.189000 -8.837050 4.753610 39.081100 -0.000007 -0.000012 0.054388 -0.110707 26.163900 40.985400 -0.000006 -0.000013 -3.011590 9.683750 -36.657800 11.754300 -0.000000 0.000003 -0.115455 -0.481399 -36.751200 -2.192510 6.469440 -0.000001 -167.529000 11.291600 126.655000 -39.081100 -0.002282 -0.040193 0.068635 -0.018630 74.142600 -40.985400 0.000008 0.000006 2.810170 -6.735580 -64.773400 -11.754300 -0.000006 -0.000006 -0.018253 -0.157415 -23.001400
0.000000 0.000000 0.000000 0.000000 0.000000 -0.000000 1.840620 92.350300 -3.102580 84.972400 10.423300 -12.088800 15.735700 0.000005 -0.000001 52.364600 78.289900 -48.727000 8.984550 -0.406207 -0.000000 11.499000 -14.074300 8.725520 16.377300 -0.000001 -0.000001 8.536570 -0.457428 -2.756320 6.456720 -0.000001 -0.000000 -4.257890 8.957840 -0.468536 12.994200 -0.242716 4.980390 -85.473100 -13.453500 -71.206100 5.348090 -0.000007 -0.000001 -46.182700 15.859200 -33.920800 24.328600 0.000019 0.000005 -5.216770 -0.469209 -84.874500 22.291600 -0.000001 0.000005 2.769990 5.659900 -16.046700 12.994500 -0.242716 -4.980390 93.158400 -5.123370 -58.289400 -5.348130 -0.000001 -0.000004 -61.606500 32.727000 20.259300 -24.328900 0.000322 -0.000009 -3.324320 -1.434600 -66.677900 -22.291500 -0.000108 -0.000004 0.632709 5.637890 -13.949600 -2.192480 -6.469440 -0.000000 -163.342000 -9.379390 8.214530 39.081100 -0.000007 -0.000012 0.091229 -0.206600 23.825000 40.985400 -0.000006 -0.000013 -5.366490 8.363700 -27.631100 11.754300 -0.000000 0.000003 -0.004832 -0.059839 -19.011400 -2.192510 6.469440 -0.000001 -167.458000 12.715800 128.932000 -39.081100 -0.002282 -0.040193 0.049300 -0.035466 52.405300 -40.985400 0.000008 0.000006 1.916650 -5.589280 -67.490800 -11.754300 -0.000006 -0.000006 -0.020360 -0.169272 -23.489600
0.000000 0.000000 0.000000 0.000000 0.000000 -0.000000 1.827400 91.999700 8.553610 86.885600 12.121300 -12.510900 15.735700 0.000005 -0.000001 47.748500 77.872300 -44.221900 8.984550 -0.406207 -0.000000 11.021100 -16.095600 8.649400 16.377300 -0.000001 -0.000001 8.863080 -0.496993 -2.479760 6.456720 -0.000001 -0.000000 -4.000910 9.624420 -1.261720 12.994200 -0.242716 4.980390 -84.890900 -14.757200 -70.659100 5.348090 -0.000007 -0.000001 -49.464600 15.782900 -32.880800 24.328600 0.000019 0.000005 -4.892740 -0.450190 -84.755400 22.291600 -0.000001 0.000005 2.900560 5.654840 -15.498200 12.994500 -0.242716 -4.980390 94.110000 -6.153550 -56.164500 -5.348130 -0.000001 -0.000004 -62.156500 32.354700 21.480300 -24.328900 0.000322 -0.000009 -2.762420 -0.981126 -70.451500 -22.291500 -0.000108 -0.000004 0.106765 5.626060 -13.045100 -2.192480 -6.469440 -0.000000 -162.911000 -6.775670 9.641290 39.081100 -0.000007 -0.000012 0.084100 -0.144607 30.181000 40.985400 -0.000006 -0.000013 -3.656740 1.811670 -34.725700 11.754300 -0.000000 0.000003 -0.005605 -0.067210 -19.311900 -2.192510 6.469440 -0.000001 -166.725000 16.382000 132.902000 -39.081100 -0.002282 -0.040193 0.005903 -0.004504 30.006800 -40.985400 0.000008 0.000006 -0.306408 -3.620040 -70.031200 -11.754300 -0.000006 -0.000006 -0.023211 -0.184464 -24.116200
0.000000 0.000000 0.000000 0.000000 0.000000 -0.000000 1.714950 90.495300 20.747900 89.023200 12.645700 -11.769500 15.735700 0.000005 -0.000001 46.787300 77.664400 -43.743800 8.984550 -0.406207 -0.000000 11.016700 -16.688800 7.738510 16.377300 -0.000001 -0.000001 9.740840 -0.807453 -2.319840 6.456720 -0.000001 -0.000000 -4.421000 9.489010 -1.092460 12.994200 -0.242716 4.980390 -84.806200 -15.247400 -70.933000 5.348090 -0.000007 -0.000001 -53.415600 16.651400 -30.813700 24.328600 0.000019 0.000005 -4.764750 -0.491848 -84.120300 22.291600 -0.000001 0.000005 4.307430 5.656980 -15.707300 12.994500 -0.242716 -4.980390 94.235600 -5.883780 -54.152400 -5.348130 -0.000001 -0.000004 -61.839500 31.148300 21.349500 -24.328900 0.000322 -0.000009 -2.053000 -0.633723 -72.840400 -22.291500 -0.000108 -0.000004 -0.504986 5.616440 -12.378900 -2.192480 -6.469440 -0.000000 -163.928000 -2.649150 12.005500 39.081100 -0.000007 -0.000012 0.072986 -0.092856 38.167200 40.985400 -0.000006 -0.000013 -3.219300 -6.405300 -38.387300 11.754300 -0.000000 0.000003 -0.005615 -0.067304 -19.315700 -2.192510 6.469440 -0.000001 -166.996000 19.350000 135.878000 -39.081100 -0.002282 -0.040193 -0.046859 0.154289 18.017500 -40.985400 0.000008 0.000006 -7.571880 -0.096606 -69.558700 -11.754300 -0.000006 -0.000006 -0.024611 -0.191606 -24.411200
0.000000 0.000000 0.000000 0.000000 0.000000 -0.000000 1.652940 87.999300 33.346000 90.164300 12.114400 -10.019700 15.735700 0.000005 -0.000001 48.987300 77.632900 -46.333800 8.984550 -0.406207 -0.000000 11.612600 -16.016600 6.971360 16.377300 -0.000001 -0.000001 11.058700 -1.003320 -2.423800 6.456720 -0.000001 -0.000000 -5.222250 9.142870 -0.716582 12.994200 -0.242716 4.980390 -85.251800 -14.323400 -71.440600 5.348090 -0.000007 -0.000001 -56.059200 19.163100 -27.665700 24.328600 0.000019 0.000005 -5.563900 -0.708295 -82.768200 22.291600 -0.000001 0.000005 6.578410 5.665730 -16.765500 12.994500 -0.242716 -4.980390 93.550500 -4.742780 -53.116100 -5.348130 -0.000001 -0.000004 -61.017500 29.514100 18.967700 -24.328900 0.000322 -0.000009 -1.077590 -0.321114 -73.383400 -22.291500 -0.000108 -0.000004 -0.422197 5.615650 -12.325900 -2.192480 -6.469440 -0.000000 -167.150000 2.361530 14.702900 39.081100 -0.000007 -0.000012 0.109613 -0.097070 48.472000 40.985400 -0.000006 -0.000013 2.798410 -9.624910 -37.984000 11.754300 -0.000000 0.000003 -0.004616 -0.057707 -18.924500 -2.192510 6.469440 -0.000001 -166.623000 20.809800 135.545000 -39.081100 -0.002282 -0.040193 -0.068981 0.162960 23.923900 -40.985400 0.000008 0.000006 -3.063530 1.929230 -73.395700 -11.754300 -0.000006 -0.000006 -0.027062 -0.203667 -24.910200
